<svg id="Capa_1" enable-background="new 0 0 512.025 512.025" height="512" viewBox="0 0 512.025 512.025" width="512" xmlns="http://www.w3.org/2000/svg"><g><path d="m256.013 172.335-10.119-9.249c-1.517-1.386-37.137-34.43-37.137-76.918s35.62-75.533 37.137-76.918l10.119-9.25 10.119 9.249c1.517 1.386 37.137 34.43 37.137 76.918s-35.62 75.533-37.137 76.918z" fill="#f3403f"/><path d="m266.132 9.249-10.119-9.249v172.335l10.119-9.249c1.517-1.386 37.137-34.43 37.137-76.918s-35.621-75.533-37.137-76.919z" fill="#d10040"/><path d="m353.591 68.745-.616-13.695-13.694-.616c-1.848-.081-45.635-1.727-72.807 25.445-4.114 4.113-7.563 8.609-10.461 13.281-2.898-4.672-6.348-9.167-10.461-13.28-27.17-27.171-70.959-25.528-72.807-25.446l-13.695.616-.616 13.695c-.083 1.851-1.726 45.637 25.445 72.807 13.64 13.64 31.458 20.014 46.063 22.973h52.142c14.604-2.959 32.423-9.332 46.063-22.972 27.171-27.171 25.528-70.957 25.444-72.808z" fill="#f77"/><path d="m353.591 68.745-.616-13.695-13.694-.616c-1.848-.081-45.635-1.727-72.807 25.445-4.114 4.113-7.563 8.609-10.461 13.281v71.365h26.071c14.604-2.959 32.423-9.332 46.063-22.972 27.171-27.171 25.528-70.957 25.444-72.808z" fill="#f3403f"/><g fill="#4fc16e"><path d="m112.521 452.547h39.225v30h-39.225z"/><path d="m104.521 382.726h39.225v30h-39.225z"/><path d="m96.354 312.905h39.225v30h-39.225z"/><path d="m97.733 234.21h30v39.224h-30z" transform="matrix(.188 -.982 .982 .188 -157.74 316.903)"/><path d="m132.427 161.346h30v39.224h-30z" transform="matrix(.691 -.723 .723 .691 -85.265 162.654)"/></g><path d="m360.28 452.547h39.225v30h-39.225z" fill="#369151"/><path d="m368.28 382.726h39.225v30h-39.225z" fill="#369151"/><path d="m376.446 312.905h39.225v30h-39.225z" fill="#369151"/><path d="m379.681 238.822h39.224v30h-39.224z" fill="#369151" transform="matrix(.982 -.188 .188 .982 -40.55 79.471)"/><path d="m344.987 165.957h39.224v30h-39.224z" fill="#369151" transform="matrix(.723 -.691 .691 .723 -24.085 301.799)"/><path d="m370.108 512.025h-228.19l-25.544-217.881c-4.67-39.83 7.939-79.858 34.594-109.82 26.655-29.963 64.943-47.147 105.046-47.147s78.391 17.185 105.046 47.147 39.264 69.99 34.594 109.82z" fill="#8adb53"/><path d="m361.059 184.324c-26.655-29.963-64.943-47.147-105.046-47.147v374.849h114.095l25.544-217.881c4.67-39.831-7.939-79.859-34.593-109.821z" fill="#4fc16e"/><g><g><path d="m302.954 512.025h-93.882l-8.284-219.062c-2.438-64.443 10.233-122.602 31.529-144.718 8.81-9.148 17.749-11.069 23.696-11.069s14.887 1.921 23.696 11.069c21.295 22.116 33.966 80.274 31.529 144.719z" fill="#4fc16e"/></g></g><path d="m279.709 148.246c-8.81-9.148-17.749-11.069-23.696-11.069v374.849h46.941l8.284-219.061c2.437-64.444-10.234-122.603-31.529-144.719z" fill="#369151"/></g></svg>