<?xml version="1.0" encoding="iso-8859-1"?>
<!-- Generator: Adobe Illustrator 19.0.0, SVG Export Plug-In . SVG Version: 6.00 Build 0)  -->
<svg version="1.1" id="Layer_1" xmlns="http://www.w3.org/2000/svg" xmlns:xlink="http://www.w3.org/1999/xlink" x="0px" y="0px"
	 viewBox="0 0 512 512" style="enable-background:new 0 0 512 512;" xml:space="preserve">
<path style="fill:#F1D849;" d="M127.064,164.31l97.23,324.102c4.201,14,17.087,23.589,31.705,23.589s27.504-9.589,31.705-23.59
	l97.231-324.102H127.064V164.31z"/>
<path style="fill:#E8BA44;" d="M255.999,164.31c0,0,0,296.49,0,347.69c14.618,0,27.504-9.589,31.705-23.59l97.231-324.102H255.999
	V164.31z"/>
<path style="fill:#CA3486;" d="M255.999,0c-67.676,0-122.538,54.862-122.538,122.538c0,14.669,2.581,28.734,7.308,41.771h99.926
	h22.915v30.008c0,15.525,12.585,28.11,28.11,28.11s28.11-12.585,28.11-28.11V164.31h51.399c4.727-13.037,7.308-27.101,7.308-41.771
	C378.538,54.862,323.676,0,255.999,0z"/>
<path style="fill:#952967;" d="M255.999,0c0,43.409,0,164.31,0,164.31h7.611v30.008c0,15.525,12.585,28.11,28.11,28.11
	s28.11-12.585,28.11-28.11V164.31h51.399c4.727-13.037,7.308-27.101,7.308-41.771C378.538,54.862,323.676,0,255.999,0z"/>
<path style="fill:#E694C4;" d="M197.784,122.538h-33.391c0-50.511,41.095-91.606,91.607-91.606v33.391
	C223.899,64.324,197.784,90.439,197.784,122.538z"/>
<g>
</g>
<g>
</g>
<g>
</g>
<g>
</g>
<g>
</g>
<g>
</g>
<g>
</g>
<g>
</g>
<g>
</g>
<g>
</g>
<g>
</g>
<g>
</g>
<g>
</g>
<g>
</g>
<g>
</g>
</svg>
